<?xml version="1.0" encoding="utf-8" standalone="no"?>
<!DOCTYPE svg PUBLIC "-//W3C//DTD SVG 1.1//EN"
  "http://www.w3.org/Graphics/SVG/1.1/DTD/svg11.dtd">
<!-- Created with matplotlib (https://matplotlib.org/) -->
<svg height="288pt" version="1.1" viewBox="0 0 432 288" width="432pt" xmlns="http://www.w3.org/2000/svg" xmlns:xlink="http://www.w3.org/1999/xlink">
 <defs>
  <style type="text/css">
*{stroke-linecap:butt;stroke-linejoin:round;}
  </style>
 </defs>
 <g id="figure_1">
  <g id="patch_1">
   <path d="M 0 288 
L 432 288 
L 432 0 
L 0 0 
z
" style="fill:#ffffff;"/>
  </g>
  <g id="axes_1">
   <g id="patch_2">
    <path d="M 54 252 
L 388.8 252 
L 388.8 34.56 
L 54 34.56 
z
" style="fill:#ffffff;"/>
   </g>
   <g id="matplotlib.axis_1">
    <g id="xtick_1">
     <g id="line2d_1">
      <defs>
       <path d="M 0 0 
L 0 3.5 
" id="m9b2d045363" style="stroke:#000000;stroke-width:0.8;"/>
      </defs>
      <g>
       <use style="stroke:#000000;stroke-width:0.8;" x="54" xlink:href="#m9b2d045363" y="252"/>
      </g>
     </g>
    </g>
    <g id="xtick_2">
     <g id="line2d_2">
      <g>
       <use style="stroke:#000000;stroke-width:0.8;" x="80.15625" xlink:href="#m9b2d045363" y="252"/>
      </g>
     </g>
     <g id="text_1">
      <!-- Apr -->
      <defs>
       <path d="M 34.1875 63.1875 
L 20.796875 26.90625 
L 47.609375 26.90625 
z
M 28.609375 72.90625 
L 39.796875 72.90625 
L 67.578125 0 
L 57.328125 0 
L 50.6875 18.703125 
L 17.828125 18.703125 
L 11.1875 0 
L 0.78125 0 
z
" id="DejaVuSans-65"/>
       <path d="M 18.109375 8.203125 
L 18.109375 -20.796875 
L 9.078125 -20.796875 
L 9.078125 54.6875 
L 18.109375 54.6875 
L 18.109375 46.390625 
Q 20.953125 51.265625 25.265625 53.625 
Q 29.59375 56 35.59375 56 
Q 45.5625 56 51.78125 48.09375 
Q 58.015625 40.1875 58.015625 27.296875 
Q 58.015625 14.40625 51.78125 6.484375 
Q 45.5625 -1.421875 35.59375 -1.421875 
Q 29.59375 -1.421875 25.265625 0.953125 
Q 20.953125 3.328125 18.109375 8.203125 
z
M 48.6875 27.296875 
Q 48.6875 37.203125 44.609375 42.84375 
Q 40.53125 48.484375 33.40625 48.484375 
Q 26.265625 48.484375 22.1875 42.84375 
Q 18.109375 37.203125 18.109375 27.296875 
Q 18.109375 17.390625 22.1875 11.75 
Q 26.265625 6.109375 33.40625 6.109375 
Q 40.53125 6.109375 44.609375 11.75 
Q 48.6875 17.390625 48.6875 27.296875 
z
" id="DejaVuSans-112"/>
       <path d="M 41.109375 46.296875 
Q 39.59375 47.171875 37.8125 47.578125 
Q 36.03125 48 33.890625 48 
Q 26.265625 48 22.1875 43.046875 
Q 18.109375 38.09375 18.109375 28.8125 
L 18.109375 0 
L 9.078125 0 
L 9.078125 54.6875 
L 18.109375 54.6875 
L 18.109375 46.1875 
Q 20.953125 51.171875 25.484375 53.578125 
Q 30.03125 56 36.53125 56 
Q 37.453125 56 38.578125 55.875 
Q 39.703125 55.765625 41.0625 55.515625 
z
" id="DejaVuSans-114"/>
      </defs>
      <g transform="translate(71.50625 266.598437)scale(0.1 -0.1)">
       <use xlink:href="#DejaVuSans-65"/>
       <use x="68.408203" xlink:href="#DejaVuSans-112"/>
       <use x="131.884766" xlink:href="#DejaVuSans-114"/>
      </g>
     </g>
    </g>
    <g id="xtick_3">
     <g id="line2d_3">
      <g>
       <use style="stroke:#000000;stroke-width:0.8;" x="114.159375" xlink:href="#m9b2d045363" y="252"/>
      </g>
     </g>
     <g id="text_2">
      <!-- Jul -->
      <defs>
       <path d="M 9.8125 72.90625 
L 19.671875 72.90625 
L 19.671875 5.078125 
Q 19.671875 -8.109375 14.671875 -14.0625 
Q 9.671875 -20.015625 -1.421875 -20.015625 
L -5.171875 -20.015625 
L -5.171875 -11.71875 
L -2.09375 -11.71875 
Q 4.4375 -11.71875 7.125 -8.046875 
Q 9.8125 -4.390625 9.8125 5.078125 
z
" id="DejaVuSans-74"/>
       <path d="M 8.5 21.578125 
L 8.5 54.6875 
L 17.484375 54.6875 
L 17.484375 21.921875 
Q 17.484375 14.15625 20.5 10.265625 
Q 23.53125 6.390625 29.59375 6.390625 
Q 36.859375 6.390625 41.078125 11.03125 
Q 45.3125 15.671875 45.3125 23.6875 
L 45.3125 54.6875 
L 54.296875 54.6875 
L 54.296875 0 
L 45.3125 0 
L 45.3125 8.40625 
Q 42.046875 3.421875 37.71875 1 
Q 33.40625 -1.421875 27.6875 -1.421875 
Q 18.265625 -1.421875 13.375 4.4375 
Q 8.5 10.296875 8.5 21.578125 
z
M 31.109375 56 
z
" id="DejaVuSans-117"/>
       <path d="M 9.421875 75.984375 
L 18.40625 75.984375 
L 18.40625 0 
L 9.421875 0 
z
" id="DejaVuSans-108"/>
      </defs>
      <g transform="translate(108.126563 266.598437)scale(0.1 -0.1)">
       <use xlink:href="#DejaVuSans-74"/>
       <use x="29.492188" xlink:href="#DejaVuSans-117"/>
       <use x="92.871094" xlink:href="#DejaVuSans-108"/>
      </g>
     </g>
    </g>
    <g id="xtick_4">
     <g id="line2d_4">
      <g>
       <use style="stroke:#000000;stroke-width:0.8;" x="148.536161" xlink:href="#m9b2d045363" y="252"/>
      </g>
     </g>
     <g id="text_3">
      <!-- Oct -->
      <defs>
       <path d="M 39.40625 66.21875 
Q 28.65625 66.21875 22.328125 58.203125 
Q 16.015625 50.203125 16.015625 36.375 
Q 16.015625 22.609375 22.328125 14.59375 
Q 28.65625 6.59375 39.40625 6.59375 
Q 50.140625 6.59375 56.421875 14.59375 
Q 62.703125 22.609375 62.703125 36.375 
Q 62.703125 50.203125 56.421875 58.203125 
Q 50.140625 66.21875 39.40625 66.21875 
z
M 39.40625 74.21875 
Q 54.734375 74.21875 63.90625 63.9375 
Q 73.09375 53.65625 73.09375 36.375 
Q 73.09375 19.140625 63.90625 8.859375 
Q 54.734375 -1.421875 39.40625 -1.421875 
Q 24.03125 -1.421875 14.8125 8.828125 
Q 5.609375 19.09375 5.609375 36.375 
Q 5.609375 53.65625 14.8125 63.9375 
Q 24.03125 74.21875 39.40625 74.21875 
z
" id="DejaVuSans-79"/>
       <path d="M 48.78125 52.59375 
L 48.78125 44.1875 
Q 44.96875 46.296875 41.140625 47.34375 
Q 37.3125 48.390625 33.40625 48.390625 
Q 24.65625 48.390625 19.8125 42.84375 
Q 14.984375 37.3125 14.984375 27.296875 
Q 14.984375 17.28125 19.8125 11.734375 
Q 24.65625 6.203125 33.40625 6.203125 
Q 37.3125 6.203125 41.140625 7.25 
Q 44.96875 8.296875 48.78125 10.40625 
L 48.78125 2.09375 
Q 45.015625 0.34375 40.984375 -0.53125 
Q 36.96875 -1.421875 32.421875 -1.421875 
Q 20.0625 -1.421875 12.78125 6.34375 
Q 5.515625 14.109375 5.515625 27.296875 
Q 5.515625 40.671875 12.859375 48.328125 
Q 20.21875 56 33.015625 56 
Q 37.15625 56 41.109375 55.140625 
Q 45.0625 54.296875 48.78125 52.59375 
z
" id="DejaVuSans-99"/>
       <path d="M 18.3125 70.21875 
L 18.3125 54.6875 
L 36.8125 54.6875 
L 36.8125 47.703125 
L 18.3125 47.703125 
L 18.3125 18.015625 
Q 18.3125 11.328125 20.140625 9.421875 
Q 21.96875 7.515625 27.59375 7.515625 
L 36.8125 7.515625 
L 36.8125 0 
L 27.59375 0 
Q 17.1875 0 13.234375 3.875 
Q 9.28125 7.765625 9.28125 18.015625 
L 9.28125 47.703125 
L 2.6875 47.703125 
L 2.6875 54.6875 
L 9.28125 54.6875 
L 9.28125 70.21875 
z
" id="DejaVuSans-116"/>
      </defs>
      <g transform="translate(139.890848 266.598437)scale(0.1 -0.1)">
       <use xlink:href="#DejaVuSans-79"/>
       <use x="78.710938" xlink:href="#DejaVuSans-99"/>
       <use x="133.691406" xlink:href="#DejaVuSans-116"/>
      </g>
     </g>
    </g>
    <g id="xtick_5">
     <g id="line2d_5">
      <g>
       <use style="stroke:#000000;stroke-width:0.8;" x="182.912946" xlink:href="#m9b2d045363" y="252"/>
      </g>
     </g>
     <g id="text_4">
      <!-- Jan -->
      <defs>
       <path d="M 34.28125 27.484375 
Q 23.390625 27.484375 19.1875 25 
Q 14.984375 22.515625 14.984375 16.5 
Q 14.984375 11.71875 18.140625 8.90625 
Q 21.296875 6.109375 26.703125 6.109375 
Q 34.1875 6.109375 38.703125 11.40625 
Q 43.21875 16.703125 43.21875 25.484375 
L 43.21875 27.484375 
z
M 52.203125 31.203125 
L 52.203125 0 
L 43.21875 0 
L 43.21875 8.296875 
Q 40.140625 3.328125 35.546875 0.953125 
Q 30.953125 -1.421875 24.3125 -1.421875 
Q 15.921875 -1.421875 10.953125 3.296875 
Q 6 8.015625 6 15.921875 
Q 6 25.140625 12.171875 29.828125 
Q 18.359375 34.515625 30.609375 34.515625 
L 43.21875 34.515625 
L 43.21875 35.40625 
Q 43.21875 41.609375 39.140625 45 
Q 35.0625 48.390625 27.6875 48.390625 
Q 23 48.390625 18.546875 47.265625 
Q 14.109375 46.140625 10.015625 43.890625 
L 10.015625 52.203125 
Q 14.9375 54.109375 19.578125 55.046875 
Q 24.21875 56 28.609375 56 
Q 40.484375 56 46.34375 49.84375 
Q 52.203125 43.703125 52.203125 31.203125 
z
" id="DejaVuSans-97"/>
       <path d="M 54.890625 33.015625 
L 54.890625 0 
L 45.90625 0 
L 45.90625 32.71875 
Q 45.90625 40.484375 42.875 44.328125 
Q 39.84375 48.1875 33.796875 48.1875 
Q 26.515625 48.1875 22.3125 43.546875 
Q 18.109375 38.921875 18.109375 30.90625 
L 18.109375 0 
L 9.078125 0 
L 9.078125 54.6875 
L 18.109375 54.6875 
L 18.109375 46.1875 
Q 21.34375 51.125 25.703125 53.5625 
Q 30.078125 56 35.796875 56 
Q 45.21875 56 50.046875 50.171875 
Q 54.890625 44.34375 54.890625 33.015625 
z
" id="DejaVuSans-110"/>
      </defs>
      <g transform="translate(175.205134 266.598437)scale(0.1 -0.1)">
       <use xlink:href="#DejaVuSans-74"/>
       <use x="29.492188" xlink:href="#DejaVuSans-97"/>
       <use x="90.771484" xlink:href="#DejaVuSans-110"/>
      </g>
      <!-- 2021 -->
      <defs>
       <path d="M 19.1875 8.296875 
L 53.609375 8.296875 
L 53.609375 0 
L 7.328125 0 
L 7.328125 8.296875 
Q 12.9375 14.109375 22.625 23.890625 
Q 32.328125 33.6875 34.8125 36.53125 
Q 39.546875 41.84375 41.421875 45.53125 
Q 43.3125 49.21875 43.3125 52.78125 
Q 43.3125 58.59375 39.234375 62.25 
Q 35.15625 65.921875 28.609375 65.921875 
Q 23.96875 65.921875 18.8125 64.3125 
Q 13.671875 62.703125 7.8125 59.421875 
L 7.8125 69.390625 
Q 13.765625 71.78125 18.9375 73 
Q 24.125 74.21875 28.421875 74.21875 
Q 39.75 74.21875 46.484375 68.546875 
Q 53.21875 62.890625 53.21875 53.421875 
Q 53.21875 48.921875 51.53125 44.890625 
Q 49.859375 40.875 45.40625 35.40625 
Q 44.1875 33.984375 37.640625 27.21875 
Q 31.109375 20.453125 19.1875 8.296875 
z
" id="DejaVuSans-50"/>
       <path d="M 31.78125 66.40625 
Q 24.171875 66.40625 20.328125 58.90625 
Q 16.5 51.421875 16.5 36.375 
Q 16.5 21.390625 20.328125 13.890625 
Q 24.171875 6.390625 31.78125 6.390625 
Q 39.453125 6.390625 43.28125 13.890625 
Q 47.125 21.390625 47.125 36.375 
Q 47.125 51.421875 43.28125 58.90625 
Q 39.453125 66.40625 31.78125 66.40625 
z
M 31.78125 74.21875 
Q 44.046875 74.21875 50.515625 64.515625 
Q 56.984375 54.828125 56.984375 36.375 
Q 56.984375 17.96875 50.515625 8.265625 
Q 44.046875 -1.421875 31.78125 -1.421875 
Q 19.53125 -1.421875 13.0625 8.265625 
Q 6.59375 17.96875 6.59375 36.375 
Q 6.59375 54.828125 13.0625 64.515625 
Q 19.53125 74.21875 31.78125 74.21875 
z
" id="DejaVuSans-48"/>
       <path d="M 12.40625 8.296875 
L 28.515625 8.296875 
L 28.515625 63.921875 
L 10.984375 60.40625 
L 10.984375 69.390625 
L 28.421875 72.90625 
L 38.28125 72.90625 
L 38.28125 8.296875 
L 54.390625 8.296875 
L 54.390625 0 
L 12.40625 0 
z
" id="DejaVuSans-49"/>
      </defs>
      <g transform="translate(170.187946 277.79625)scale(0.1 -0.1)">
       <use xlink:href="#DejaVuSans-50"/>
       <use x="63.623047" xlink:href="#DejaVuSans-48"/>
       <use x="127.246094" xlink:href="#DejaVuSans-50"/>
       <use x="190.869141" xlink:href="#DejaVuSans-49"/>
      </g>
     </g>
    </g>
    <g id="xtick_6">
     <g id="line2d_6">
      <g>
       <use style="stroke:#000000;stroke-width:0.8;" x="216.542411" xlink:href="#m9b2d045363" y="252"/>
      </g>
     </g>
     <g id="text_5">
      <!-- Apr -->
      <g transform="translate(207.892411 266.598437)scale(0.1 -0.1)">
       <use xlink:href="#DejaVuSans-65"/>
       <use x="68.408203" xlink:href="#DejaVuSans-112"/>
       <use x="131.884766" xlink:href="#DejaVuSans-114"/>
      </g>
     </g>
    </g>
    <g id="xtick_7">
     <g id="line2d_7">
      <g>
       <use style="stroke:#000000;stroke-width:0.8;" x="250.545536" xlink:href="#m9b2d045363" y="252"/>
      </g>
     </g>
     <g id="text_6">
      <!-- Jul -->
      <g transform="translate(244.512723 266.598437)scale(0.1 -0.1)">
       <use xlink:href="#DejaVuSans-74"/>
       <use x="29.492188" xlink:href="#DejaVuSans-117"/>
       <use x="92.871094" xlink:href="#DejaVuSans-108"/>
      </g>
     </g>
    </g>
    <g id="xtick_8">
     <g id="line2d_8">
      <g>
       <use style="stroke:#000000;stroke-width:0.8;" x="284.922321" xlink:href="#m9b2d045363" y="252"/>
      </g>
     </g>
     <g id="text_7">
      <!-- Oct -->
      <g transform="translate(276.277009 266.598437)scale(0.1 -0.1)">
       <use xlink:href="#DejaVuSans-79"/>
       <use x="78.710938" xlink:href="#DejaVuSans-99"/>
       <use x="133.691406" xlink:href="#DejaVuSans-116"/>
      </g>
     </g>
    </g>
    <g id="xtick_9">
     <g id="line2d_9">
      <g>
       <use style="stroke:#000000;stroke-width:0.8;" x="319.299107" xlink:href="#m9b2d045363" y="252"/>
      </g>
     </g>
     <g id="text_8">
      <!-- Jan -->
      <g transform="translate(311.591295 266.598437)scale(0.1 -0.1)">
       <use xlink:href="#DejaVuSans-74"/>
       <use x="29.492188" xlink:href="#DejaVuSans-97"/>
       <use x="90.771484" xlink:href="#DejaVuSans-110"/>
      </g>
      <!-- 2022 -->
      <g transform="translate(306.574107 277.79625)scale(0.1 -0.1)">
       <use xlink:href="#DejaVuSans-50"/>
       <use x="63.623047" xlink:href="#DejaVuSans-48"/>
       <use x="127.246094" xlink:href="#DejaVuSans-50"/>
       <use x="190.869141" xlink:href="#DejaVuSans-50"/>
      </g>
     </g>
    </g>
    <g id="xtick_10">
     <g id="line2d_10">
      <g>
       <use style="stroke:#000000;stroke-width:0.8;" x="352.928571" xlink:href="#m9b2d045363" y="252"/>
      </g>
     </g>
     <g id="text_9">
      <!-- Apr -->
      <g transform="translate(344.278571 266.598437)scale(0.1 -0.1)">
       <use xlink:href="#DejaVuSans-65"/>
       <use x="68.408203" xlink:href="#DejaVuSans-112"/>
       <use x="131.884766" xlink:href="#DejaVuSans-114"/>
      </g>
     </g>
    </g>
    <g id="xtick_11">
     <g id="line2d_11">
      <g>
       <use style="stroke:#000000;stroke-width:0.8;" x="386.931696" xlink:href="#m9b2d045363" y="252"/>
      </g>
     </g>
     <g id="text_10">
      <!-- Jul -->
      <g transform="translate(380.898884 266.598437)scale(0.1 -0.1)">
       <use xlink:href="#DejaVuSans-74"/>
       <use x="29.492188" xlink:href="#DejaVuSans-117"/>
       <use x="92.871094" xlink:href="#DejaVuSans-108"/>
      </g>
     </g>
    </g>
    <g id="xtick_12">
     <g id="line2d_12">
      <g>
       <use style="stroke:#000000;stroke-width:0.8;" x="388.8" xlink:href="#m9b2d045363" y="252"/>
      </g>
     </g>
    </g>
    <g id="xtick_13">
     <g id="line2d_13">
      <defs>
       <path d="M 0 0 
L 0 2 
" id="m058e644965" style="stroke:#000000;stroke-width:0.6;"/>
      </defs>
      <g>
       <use style="stroke:#000000;stroke-width:0.6;" x="57.736607" xlink:href="#m058e644965" y="252"/>
      </g>
     </g>
    </g>
    <g id="xtick_14">
     <g id="line2d_14">
      <g>
       <use style="stroke:#000000;stroke-width:0.6;" x="68.572768" xlink:href="#m058e644965" y="252"/>
      </g>
     </g>
    </g>
    <g id="xtick_15">
     <g id="line2d_15">
      <g>
       <use style="stroke:#000000;stroke-width:0.6;" x="91.366071" xlink:href="#m058e644965" y="252"/>
      </g>
     </g>
    </g>
    <g id="xtick_16">
     <g id="line2d_16">
      <g>
       <use style="stroke:#000000;stroke-width:0.6;" x="102.949554" xlink:href="#m058e644965" y="252"/>
      </g>
     </g>
    </g>
    <g id="xtick_17">
     <g id="line2d_17">
      <g>
       <use style="stroke:#000000;stroke-width:0.6;" x="125.742857" xlink:href="#m058e644965" y="252"/>
      </g>
     </g>
    </g>
    <g id="xtick_18">
     <g id="line2d_18">
      <g>
       <use style="stroke:#000000;stroke-width:0.6;" x="137.326339" xlink:href="#m058e644965" y="252"/>
      </g>
     </g>
    </g>
    <g id="xtick_19">
     <g id="line2d_19">
      <g>
       <use style="stroke:#000000;stroke-width:0.6;" x="160.119643" xlink:href="#m058e644965" y="252"/>
      </g>
     </g>
    </g>
    <g id="xtick_20">
     <g id="line2d_20">
      <g>
       <use style="stroke:#000000;stroke-width:0.6;" x="171.329464" xlink:href="#m058e644965" y="252"/>
      </g>
     </g>
    </g>
    <g id="xtick_21">
     <g id="line2d_21">
      <g>
       <use style="stroke:#000000;stroke-width:0.6;" x="194.496429" xlink:href="#m058e644965" y="252"/>
      </g>
     </g>
    </g>
    <g id="xtick_22">
     <g id="line2d_22">
      <g>
       <use style="stroke:#000000;stroke-width:0.6;" x="204.958929" xlink:href="#m058e644965" y="252"/>
      </g>
     </g>
    </g>
    <g id="xtick_23">
     <g id="line2d_23">
      <g>
       <use style="stroke:#000000;stroke-width:0.6;" x="227.752232" xlink:href="#m058e644965" y="252"/>
      </g>
     </g>
    </g>
    <g id="xtick_24">
     <g id="line2d_24">
      <g>
       <use style="stroke:#000000;stroke-width:0.6;" x="239.335714" xlink:href="#m058e644965" y="252"/>
      </g>
     </g>
    </g>
    <g id="xtick_25">
     <g id="line2d_25">
      <g>
       <use style="stroke:#000000;stroke-width:0.6;" x="262.129018" xlink:href="#m058e644965" y="252"/>
      </g>
     </g>
    </g>
    <g id="xtick_26">
     <g id="line2d_26">
      <g>
       <use style="stroke:#000000;stroke-width:0.6;" x="273.7125" xlink:href="#m058e644965" y="252"/>
      </g>
     </g>
    </g>
    <g id="xtick_27">
     <g id="line2d_27">
      <g>
       <use style="stroke:#000000;stroke-width:0.6;" x="296.505804" xlink:href="#m058e644965" y="252"/>
      </g>
     </g>
    </g>
    <g id="xtick_28">
     <g id="line2d_28">
      <g>
       <use style="stroke:#000000;stroke-width:0.6;" x="307.715625" xlink:href="#m058e644965" y="252"/>
      </g>
     </g>
    </g>
    <g id="xtick_29">
     <g id="line2d_29">
      <g>
       <use style="stroke:#000000;stroke-width:0.6;" x="330.882589" xlink:href="#m058e644965" y="252"/>
      </g>
     </g>
    </g>
    <g id="xtick_30">
     <g id="line2d_30">
      <g>
       <use style="stroke:#000000;stroke-width:0.6;" x="341.345089" xlink:href="#m058e644965" y="252"/>
      </g>
     </g>
    </g>
    <g id="xtick_31">
     <g id="line2d_31">
      <g>
       <use style="stroke:#000000;stroke-width:0.6;" x="364.138393" xlink:href="#m058e644965" y="252"/>
      </g>
     </g>
    </g>
    <g id="xtick_32">
     <g id="line2d_32">
      <g>
       <use style="stroke:#000000;stroke-width:0.6;" x="375.721875" xlink:href="#m058e644965" y="252"/>
      </g>
     </g>
    </g>
    <g id="text_11">
     <!-- Date -->
     <defs>
      <path d="M 19.671875 64.796875 
L 19.671875 8.109375 
L 31.59375 8.109375 
Q 46.6875 8.109375 53.6875 14.9375 
Q 60.6875 21.78125 60.6875 36.53125 
Q 60.6875 51.171875 53.6875 57.984375 
Q 46.6875 64.796875 31.59375 64.796875 
z
M 9.8125 72.90625 
L 30.078125 72.90625 
Q 51.265625 72.90625 61.171875 64.09375 
Q 71.09375 55.28125 71.09375 36.53125 
Q 71.09375 17.671875 61.125 8.828125 
Q 51.171875 0 30.078125 0 
L 9.8125 0 
z
" id="DejaVuSans-68"/>
      <path d="M 56.203125 29.59375 
L 56.203125 25.203125 
L 14.890625 25.203125 
Q 15.484375 15.921875 20.484375 11.0625 
Q 25.484375 6.203125 34.421875 6.203125 
Q 39.59375 6.203125 44.453125 7.46875 
Q 49.3125 8.734375 54.109375 11.28125 
L 54.109375 2.78125 
Q 49.265625 0.734375 44.1875 -0.34375 
Q 39.109375 -1.421875 33.890625 -1.421875 
Q 20.796875 -1.421875 13.15625 6.1875 
Q 5.515625 13.8125 5.515625 26.8125 
Q 5.515625 40.234375 12.765625 48.109375 
Q 20.015625 56 32.328125 56 
Q 43.359375 56 49.78125 48.890625 
Q 56.203125 41.796875 56.203125 29.59375 
z
M 47.21875 32.234375 
Q 47.125 39.59375 43.09375 43.984375 
Q 39.0625 48.390625 32.421875 48.390625 
Q 24.90625 48.390625 20.390625 44.140625 
Q 15.875 39.890625 15.1875 32.171875 
z
" id="DejaVuSans-101"/>
     </defs>
     <g transform="translate(209.449219 291.474375)scale(0.1 -0.1)">
      <use xlink:href="#DejaVuSans-68"/>
      <use x="77.001953" xlink:href="#DejaVuSans-97"/>
      <use x="138.28125" xlink:href="#DejaVuSans-116"/>
      <use x="177.490234" xlink:href="#DejaVuSans-101"/>
     </g>
    </g>
   </g>
   <g id="matplotlib.axis_2">
    <g id="ytick_1">
     <g id="line2d_33">
      <defs>
       <path d="M 0 0 
L -3.5 0 
" id="ma597062e0f" style="stroke:#000000;stroke-width:0.8;"/>
      </defs>
      <g>
       <use style="stroke:#000000;stroke-width:0.8;" x="54" xlink:href="#ma597062e0f" y="242.116364"/>
      </g>
     </g>
     <g id="text_12">
      <!-- 0 -->
      <g transform="translate(40.6375 245.915582)scale(0.1 -0.1)">
       <use xlink:href="#DejaVuSans-48"/>
      </g>
     </g>
    </g>
    <g id="ytick_2">
     <g id="line2d_34">
      <g>
       <use style="stroke:#000000;stroke-width:0.8;" x="54" xlink:href="#ma597062e0f" y="199.388047"/>
      </g>
     </g>
     <g id="text_13">
      <!-- 200000 -->
      <g transform="translate(8.825 203.187266)scale(0.1 -0.1)">
       <use xlink:href="#DejaVuSans-50"/>
       <use x="63.623047" xlink:href="#DejaVuSans-48"/>
       <use x="127.246094" xlink:href="#DejaVuSans-48"/>
       <use x="190.869141" xlink:href="#DejaVuSans-48"/>
       <use x="254.492188" xlink:href="#DejaVuSans-48"/>
       <use x="318.115234" xlink:href="#DejaVuSans-48"/>
      </g>
     </g>
    </g>
    <g id="ytick_3">
     <g id="line2d_35">
      <g>
       <use style="stroke:#000000;stroke-width:0.8;" x="54" xlink:href="#ma597062e0f" y="156.659731"/>
      </g>
     </g>
     <g id="text_14">
      <!-- 400000 -->
      <defs>
       <path d="M 37.796875 64.3125 
L 12.890625 25.390625 
L 37.796875 25.390625 
z
M 35.203125 72.90625 
L 47.609375 72.90625 
L 47.609375 25.390625 
L 58.015625 25.390625 
L 58.015625 17.1875 
L 47.609375 17.1875 
L 47.609375 0 
L 37.796875 0 
L 37.796875 17.1875 
L 4.890625 17.1875 
L 4.890625 26.703125 
z
" id="DejaVuSans-52"/>
      </defs>
      <g transform="translate(8.825 160.45895)scale(0.1 -0.1)">
       <use xlink:href="#DejaVuSans-52"/>
       <use x="63.623047" xlink:href="#DejaVuSans-48"/>
       <use x="127.246094" xlink:href="#DejaVuSans-48"/>
       <use x="190.869141" xlink:href="#DejaVuSans-48"/>
       <use x="254.492188" xlink:href="#DejaVuSans-48"/>
       <use x="318.115234" xlink:href="#DejaVuSans-48"/>
      </g>
     </g>
    </g>
    <g id="ytick_4">
     <g id="line2d_36">
      <g>
       <use style="stroke:#000000;stroke-width:0.8;" x="54" xlink:href="#ma597062e0f" y="113.931415"/>
      </g>
     </g>
     <g id="text_15">
      <!-- 600000 -->
      <defs>
       <path d="M 33.015625 40.375 
Q 26.375 40.375 22.484375 35.828125 
Q 18.609375 31.296875 18.609375 23.390625 
Q 18.609375 15.53125 22.484375 10.953125 
Q 26.375 6.390625 33.015625 6.390625 
Q 39.65625 6.390625 43.53125 10.953125 
Q 47.40625 15.53125 47.40625 23.390625 
Q 47.40625 31.296875 43.53125 35.828125 
Q 39.65625 40.375 33.015625 40.375 
z
M 52.59375 71.296875 
L 52.59375 62.3125 
Q 48.875 64.0625 45.09375 64.984375 
Q 41.3125 65.921875 37.59375 65.921875 
Q 27.828125 65.921875 22.671875 59.328125 
Q 17.53125 52.734375 16.796875 39.40625 
Q 19.671875 43.65625 24.015625 45.921875 
Q 28.375 48.1875 33.59375 48.1875 
Q 44.578125 48.1875 50.953125 41.515625 
Q 57.328125 34.859375 57.328125 23.390625 
Q 57.328125 12.15625 50.6875 5.359375 
Q 44.046875 -1.421875 33.015625 -1.421875 
Q 20.359375 -1.421875 13.671875 8.265625 
Q 6.984375 17.96875 6.984375 36.375 
Q 6.984375 53.65625 15.1875 63.9375 
Q 23.390625 74.21875 37.203125 74.21875 
Q 40.921875 74.21875 44.703125 73.484375 
Q 48.484375 72.75 52.59375 71.296875 
z
" id="DejaVuSans-54"/>
      </defs>
      <g transform="translate(8.825 117.730634)scale(0.1 -0.1)">
       <use xlink:href="#DejaVuSans-54"/>
       <use x="63.623047" xlink:href="#DejaVuSans-48"/>
       <use x="127.246094" xlink:href="#DejaVuSans-48"/>
       <use x="190.869141" xlink:href="#DejaVuSans-48"/>
       <use x="254.492188" xlink:href="#DejaVuSans-48"/>
       <use x="318.115234" xlink:href="#DejaVuSans-48"/>
      </g>
     </g>
    </g>
    <g id="ytick_5">
     <g id="line2d_37">
      <g>
       <use style="stroke:#000000;stroke-width:0.8;" x="54" xlink:href="#ma597062e0f" y="71.203099"/>
      </g>
     </g>
     <g id="text_16">
      <!-- 800000 -->
      <defs>
       <path d="M 31.78125 34.625 
Q 24.75 34.625 20.71875 30.859375 
Q 16.703125 27.09375 16.703125 20.515625 
Q 16.703125 13.921875 20.71875 10.15625 
Q 24.75 6.390625 31.78125 6.390625 
Q 38.8125 6.390625 42.859375 10.171875 
Q 46.921875 13.96875 46.921875 20.515625 
Q 46.921875 27.09375 42.890625 30.859375 
Q 38.875 34.625 31.78125 34.625 
z
M 21.921875 38.8125 
Q 15.578125 40.375 12.03125 44.71875 
Q 8.5 49.078125 8.5 55.328125 
Q 8.5 64.0625 14.71875 69.140625 
Q 20.953125 74.21875 31.78125 74.21875 
Q 42.671875 74.21875 48.875 69.140625 
Q 55.078125 64.0625 55.078125 55.328125 
Q 55.078125 49.078125 51.53125 44.71875 
Q 48 40.375 41.703125 38.8125 
Q 48.828125 37.15625 52.796875 32.3125 
Q 56.78125 27.484375 56.78125 20.515625 
Q 56.78125 9.90625 50.3125 4.234375 
Q 43.84375 -1.421875 31.78125 -1.421875 
Q 19.734375 -1.421875 13.25 4.234375 
Q 6.78125 9.90625 6.78125 20.515625 
Q 6.78125 27.484375 10.78125 32.3125 
Q 14.796875 37.15625 21.921875 38.8125 
z
M 18.3125 54.390625 
Q 18.3125 48.734375 21.84375 45.5625 
Q 25.390625 42.390625 31.78125 42.390625 
Q 38.140625 42.390625 41.71875 45.5625 
Q 45.3125 48.734375 45.3125 54.390625 
Q 45.3125 60.0625 41.71875 63.234375 
Q 38.140625 66.40625 31.78125 66.40625 
Q 25.390625 66.40625 21.84375 63.234375 
Q 18.3125 60.0625 18.3125 54.390625 
z
" id="DejaVuSans-56"/>
      </defs>
      <g transform="translate(8.825 75.002318)scale(0.1 -0.1)">
       <use xlink:href="#DejaVuSans-56"/>
       <use x="63.623047" xlink:href="#DejaVuSans-48"/>
       <use x="127.246094" xlink:href="#DejaVuSans-48"/>
       <use x="190.869141" xlink:href="#DejaVuSans-48"/>
       <use x="254.492188" xlink:href="#DejaVuSans-48"/>
       <use x="318.115234" xlink:href="#DejaVuSans-48"/>
      </g>
     </g>
    </g>
   </g>
   <g id="line2d_38">
    <path clip-path="url(#p38cf533e8f)" d="M 54 242.116364 
L 77.540625 242.02172 
L 83.519196 241.528422 
L 87.255804 241.162027 
L 101.454911 239.524678 
L 105.938839 238.434678 
L 107.433482 237.830927 
L 107.807143 237.540588 
L 108.180804 237.539734 
L 109.301786 237.127619 
L 110.796429 236.401024 
L 111.54375 236.12799 
L 113.785714 234.948689 
L 117.522321 232.87487 
L 118.269643 232.367257 
L 119.016964 231.841058 
L 121.258929 230.488707 
L 122.379911 229.97789 
L 124.621875 228.599474 
L 126.490179 227.491316 
L 130.974107 224.882966 
L 131.347768 224.610572 
L 132.842411 224.201449 
L 133.216071 224.086723 
L 134.710714 223.234507 
L 144.799554 219.297306 
L 145.920536 218.887969 
L 149.657143 217.48648 
L 151.525446 216.726985 
L 152.646429 216.308033 
L 153.39375 216.024745 
L 154.888393 215.465645 
L 156.009375 215.10459 
L 157.504018 214.513871 
L 158.625 214.076547 
L 160.866964 213.148274 
L 161.614286 212.939974 
L 162.735268 212.307595 
L 163.85625 211.679916 
L 164.977232 211.072319 
L 166.098214 210.343374 
L 168.713839 208.58959 
L 170.582143 206.9234 
L 171.329464 206.371777 
L 175.066071 201.998961 
L 175.813393 200.882043 
L 176.187054 200.537653 
L 176.934375 199.39937 
L 178.429018 196.751924 
L 178.802679 196.388947 
L 180.297321 193.692363 
L 181.044643 192.688888 
L 181.418304 192.187258 
L 182.539286 189.391758 
L 183.286607 188.329105 
L 184.033929 187.374981 
L 184.407589 186.61869 
L 185.154911 184.627337 
L 185.902232 182.986356 
L 186.649554 182.007664 
L 187.396875 180.500423 
L 188.517857 178.820986 
L 190.386161 176.795023 
L 191.507143 175.621703 
L 191.880804 175.426435 
L 193.375446 174.12429 
L 194.122768 173.670088 
L 194.870089 173.280833 
L 196.364732 172.370079 
L 198.233036 171.598619 
L 198.980357 171.25316 
L 200.848661 170.66116 
L 201.969643 170.221485 
L 203.090625 169.755747 
L 204.585268 169.282744 
L 212.432143 167.130092 
L 213.553125 166.897009 
L 216.16875 166.262707 
L 217.663393 165.979418 
L 218.784375 165.787141 
L 220.279018 165.502143 
L 221.773661 165.241714 
L 223.268304 164.982353 
L 228.873214 164.004942 
L 231.8625 163.297575 
L 235.599107 162.262695 
L 237.09375 161.872586 
L 238.588393 161.407702 
L 239.335714 161.182951 
L 242.698661 159.78894 
L 243.819643 159.257186 
L 244.566964 158.972829 
L 246.061607 158.124458 
L 246.808929 157.890093 
L 248.677232 156.686009 
L 249.798214 156.108322 
L 251.666518 154.924321 
L 252.040179 154.795068 
L 253.908482 153.530523 
L 255.029464 153.009238 
L 255.776786 152.423432 
L 256.897768 151.814768 
L 257.645089 151.435126 
L 259.513393 150.26138 
L 259.887054 150.155627 
L 261.755357 149.042341 
L 263.623661 148.199738 
L 263.997321 148.199738 
L 264.370982 147.832916 
L 266.239286 146.906779 
L 269.602232 145.553787 
L 272.965179 144.474256 
L 277.449107 143.411817 
L 278.570089 143.318455 
L 279.317411 143.10225 
L 283.054018 142.521359 
L 299.121429 140.952375 
L 300.242411 140.849827 
L 306.220982 140.143955 
L 307.341964 140.050808 
L 313.320536 139.178723 
L 313.694196 138.996486 
L 314.441518 138.914021 
L 315.188839 138.791177 
L 315.936161 138.390812 
L 316.309821 138.390812 
L 316.683482 138.029331 
L 317.430804 137.78642 
L 318.178125 137.209161 
L 318.551786 137.209161 
L 318.925446 136.167231 
L 319.299107 135.763876 
L 320.420089 135.263954 
L 320.79375 134.567696 
L 321.167411 132.64599 
L 322.288393 129.673595 
L 323.035714 128.125975 
L 323.409375 126.734528 
L 323.783036 126.734528 
L 324.156696 122.75994 
L 324.904018 119.303219 
L 325.277679 118.135027 
L 326.772321 108.186593 
L 327.145982 108.186593 
L 327.519643 104.385268 
L 327.893304 104.385268 
L 328.266964 103.219854 
L 328.640625 99.006414 
L 329.761607 94.140941 
L 330.135268 93.18169 
L 330.508929 93.18169 
L 330.882589 91.311045 
L 331.25625 91.311045 
L 331.629911 88.898817 
L 332.003571 87.97845 
L 332.377232 87.97845 
L 332.750893 86.7107 
L 333.124554 86.7107 
L 333.498214 85.686503 
L 334.245536 84.521729 
L 334.992857 83.668872 
L 335.366518 83.411861 
L 335.740179 83.411861 
L 336.113839 82.874979 
L 337.234821 82.069978 
L 337.608482 82.069978 
L 337.982143 81.72281 
L 338.355804 81.72281 
L 338.729464 81.420935 
L 340.224107 80.837266 
L 345.081696 79.914548 
L 345.829018 79.826528 
L 347.323661 79.591736 
L 356.291518 78.268012 
L 357.038839 78.238957 
L 357.786161 77.997115 
L 360.401786 77.51343 
L 361.522768 77.223732 
L 362.270089 77.007741 
L 365.259375 75.444312 
L 366.754018 73.666173 
L 367.127679 73.375834 
L 368.995982 69.862071 
L 369.743304 69.014982 
L 370.116964 69.014982 
L 370.490625 67.430616 
L 371.611607 65.195498 
L 372.358929 64.356954 
L 374.227232 60.417617 
L 374.974554 59.570528 
L 376.469196 56.505413 
L 376.842857 55.852524 
L 377.590179 55.076151 
L 378.711161 53.033737 
L 379.458482 51.983902 
L 380.205804 51.450867 
L 381.326786 50.077792 
L 383.195089 48.464157 
L 384.689732 46.862486 
L 385.810714 46.012193 
L 386.931696 44.927321 
L 387.305357 44.927321 
L 387.679018 44.443636 
L 388.8 44.443636 
L 388.8 44.443636 
" style="fill:none;stroke:#1f77b4;stroke-linecap:square;stroke-width:1.5;"/>
   </g>
   <g id="line2d_39">
    <path clip-path="url(#p38cf533e8f)" d="M 54 242.116364 
L 82.771875 242.009116 
L 89.871429 241.967455 
L 106.686161 241.787783 
L 113.785714 241.377377 
L 117.522321 240.653987 
L 120.137946 239.986571 
L 126.490179 237.97129 
L 127.611161 237.614936 
L 128.358482 237.244908 
L 129.853125 236.763147 
L 130.974107 236.190587 
L 135.084375 234.359679 
L 138.447321 232.357216 
L 138.820982 232.092301 
L 139.194643 232.092301 
L 139.941964 231.45629 
L 141.436607 230.269083 
L 141.810268 230.269083 
L 142.183929 229.861669 
L 142.557589 229.695883 
L 144.052232 228.504831 
L 144.425893 228.504831 
L 144.799554 228.101049 
L 145.920536 227.277033 
L 146.667857 226.723701 
L 147.041518 226.723701 
L 147.415179 226.367988 
L 148.909821 225.488853 
L 149.283482 225.199796 
L 149.657143 225.199796 
L 150.030804 224.783836 
L 150.778125 224.277933 
L 151.899107 223.435757 
L 152.272768 223.435757 
L 152.646429 223.054621 
L 153.39375 222.508339 
L 154.514732 221.710602 
L 154.888393 221.710602 
L 155.262054 221.377107 
L 155.635714 221.196153 
L 156.756696 220.362096 
L 157.130357 220.09248 
L 157.504018 220.09248 
L 158.625 219.352212 
L 159.745982 218.621985 
L 160.119643 218.621985 
L 161.240625 217.919105 
L 162.361607 217.256388 
L 162.735268 217.256388 
L 164.977232 215.790807 
L 165.350893 215.790807 
L 167.219196 214.467298 
L 167.966518 214.467298 
L 168.340179 213.852651 
L 169.0875 213.377298 
L 169.834821 212.827598 
L 170.582143 212.827598 
L 170.955804 212.283881 
L 171.329464 212.169796 
L 172.450446 211.419273 
L 173.197768 211.419273 
L 173.571429 210.83475 
L 175.439732 209.867808 
L 175.813393 209.867808 
L 176.187054 209.393096 
L 177.308036 208.705384 
L 177.681696 208.473797 
L 178.429018 208.473797 
L 178.802679 207.95657 
L 180.297321 207.294922 
L 181.044643 207.294922 
L 181.418304 206.702708 
L 182.912946 205.942358 
L 183.660268 205.942358 
L 184.033929 205.276864 
L 185.902232 204.170628 
L 186.275893 204.170628 
L 186.649554 203.647847 
L 188.144196 202.766362 
L 188.891518 202.766362 
L 189.265179 202.375611 
L 190.759821 201.672303 
L 191.507143 201.672303 
L 191.880804 201.3653 
L 193.749107 200.824573 
L 194.122768 200.824573 
L 194.496429 200.548335 
L 196.364732 200.149039 
L 196.738393 200.149039 
L 197.485714 199.84695 
L 198.606696 199.561738 
L 199.354018 199.561738 
L 200.101339 199.291054 
L 201.595982 199.029557 
L 201.969643 199.029557 
L 202.716964 198.726399 
L 204.211607 198.460629 
L 204.585268 198.460629 
L 205.332589 198.210028 
L 206.827232 197.969467 
L 207.574554 197.969467 
L 207.948214 197.714807 
L 208.695536 197.714807 
L 209.069196 197.445405 
L 210.190179 197.445405 
L 210.563839 197.156134 
L 211.311161 197.156134 
L 211.684821 196.845072 
L 212.805804 196.845072 
L 213.179464 196.517132 
L 213.926786 196.517132 
L 214.300446 196.145396 
L 215.421429 196.145396 
L 215.795089 195.80656 
L 218.037054 195.80656 
L 218.410714 195.148117 
L 219.158036 195.148117 
L 219.531696 194.571712 
L 220.652679 194.571712 
L 221.026339 193.973729 
L 221.4 193.973729 
L 221.773661 193.505854 
L 222.147321 193.282812 
L 222.894643 193.282812 
L 223.268304 192.799982 
L 224.015625 192.231482 
L 225.136607 191.1073 
L 225.510268 191.1073 
L 227.378571 188.49425 
L 228.125893 188.49425 
L 228.499554 187.279697 
L 228.873214 187.001109 
L 229.994196 185.397515 
L 230.741518 185.397515 
L 231.115179 184.117375 
L 231.488839 183.639672 
L 232.609821 181.711129 
L 233.357143 181.711129 
L 233.730804 180.453849 
L 234.478125 179.344194 
L 235.225446 178.190743 
L 235.972768 178.190743 
L 236.346429 177.056307 
L 237.841071 175.011116 
L 238.588393 175.011116 
L 238.962054 173.96769 
L 240.456696 172.046412 
L 241.204018 172.046412 
L 241.577679 171.20445 
L 243.072321 169.49959 
L 243.819643 169.49959 
L 244.193304 168.708262 
L 245.687946 167.207216 
L 246.435268 167.207216 
L 246.808929 166.466948 
L 247.929911 165.362207 
L 248.303571 164.990685 
L 249.050893 164.990685 
L 249.424554 164.285881 
L 250.919196 162.811327 
L 251.666518 162.811327 
L 252.040179 162.145193 
L 253.534821 160.829588 
L 254.655804 160.829588 
L 255.029464 159.849614 
L 256.150446 158.839303 
L 256.897768 158.839303 
L 257.271429 158.20201 
L 258.766071 156.95712 
L 259.887054 156.95712 
L 260.260714 156.223048 
L 261.381696 155.203978 
L 262.502679 155.203978 
L 262.876339 154.283396 
L 263.997321 153.096831 
L 264.744643 153.096831 
L 265.118304 152.288197 
L 266.612946 150.614743 
L 267.360268 150.614743 
L 267.733929 149.791368 
L 269.228571 147.975842 
L 269.975893 147.975842 
L 270.349554 146.951431 
L 271.096875 145.915483 
L 271.844196 144.741949 
L 272.591518 144.741949 
L 272.965179 143.596617 
L 274.459821 141.21024 
L 275.207143 141.21024 
L 275.580804 139.964924 
L 277.075446 137.478136 
L 278.196429 137.478136 
L 278.570089 135.992899 
L 279.691071 134.192542 
L 280.438393 134.192542 
L 280.812054 133.019649 
L 282.306696 130.770217 
L 283.054018 130.770217 
L 283.427679 129.741106 
L 284.922321 128.058892 
L 285.669643 128.058892 
L 286.043304 127.195139 
L 287.537946 125.890857 
L 288.285268 125.890857 
L 288.658929 125.340944 
L 289.779911 124.584866 
L 290.153571 124.369088 
L 290.900893 124.369088 
L 291.274554 123.982611 
L 293.142857 123.338054 
L 293.516518 123.338054 
L 294.263839 122.921026 
L 295.384821 122.541598 
L 296.132143 122.541598 
L 296.879464 122.2519 
L 298.374107 121.982284 
L 298.747768 121.982284 
L 299.495089 121.774198 
L 299.86875 121.774198 
L 300.616071 121.588543 
L 301.737054 121.481081 
L 303.605357 121.291795 
L 304.352679 121.205484 
L 306.594643 121.07559 
L 307.715625 120.990347 
L 308.836607 120.899763 
L 310.33125 120.830756 
L 311.825893 120.769014 
L 313.320536 120.676507 
L 316.309821 120.584214 
L 317.430804 120.584214 
L 317.804464 120.221878 
L 320.046429 120.221878 
L 320.420089 119.086373 
L 321.167411 117.90643 
L 321.541071 117.232818 
L 322.288393 117.232818 
L 322.662054 115.695026 
L 323.783036 112.936273 
L 324.156696 111.820209 
L 324.904018 111.820209 
L 325.277679 109.533176 
L 326.772321 104.638861 
L 327.893304 104.638861 
L 328.266964 100.753148 
L 329.387946 96.310258 
L 330.135268 96.310258 
L 330.508929 93.664307 
L 332.003571 87.873338 
L 332.750893 87.873338 
L 333.124554 85.365827 
L 334.619196 80.369818 
L 335.366518 80.369818 
L 335.740179 78.355819 
L 337.234821 74.741644 
L 337.982143 74.741644 
L 338.355804 73.244658 
L 339.476786 71.240273 
L 339.850446 70.674977 
L 340.597768 70.674977 
L 340.971429 69.72299 
L 342.092411 68.465923 
L 342.466071 68.087564 
L 343.213393 68.087564 
L 343.587054 67.456253 
L 345.081696 66.303229 
L 345.829018 66.303229 
L 346.202679 65.828304 
L 347.697321 64.922036 
L 348.444643 64.922036 
L 348.818304 64.547736 
L 350.312946 63.784181 
L 351.807589 63.784181 
L 352.18125 63.121465 
L 352.928571 62.792457 
L 354.049554 62.792457 
L 354.423214 62.370515 
L 356.665179 62.370515 
L 357.038839 61.612301 
L 359.654464 61.612301 
L 360.028125 60.99445 
L 362.270089 60.99445 
L 362.64375 60.077927 
L 364.885714 60.077927 
L 365.259375 58.963573 
L 367.127679 58.963573 
L 367.501339 57.067717 
L 370.116964 57.067717 
L 370.490625 54.638826 
L 372.358929 54.638826 
L 372.732589 51.753597 
L 375.348214 51.753597 
L 375.721875 48.784833 
L 388.8 48.784833 
L 388.8 48.784833 
" style="fill:none;stroke:#ff7f0e;stroke-linecap:square;stroke-width:1.5;"/>
   </g>
   <g id="line2d_40">
    <path clip-path="url(#p38cf533e8f)" d="M 54 242.116364 
L 101.08125 242.056758 
L 101.828571 241.927291 
L 106.3125 241.836707 
L 107.059821 241.762787 
L 114.159375 241.686089 
L 115.654018 241.650198 
L 119.016964 241.601274 
L 119.764286 241.536968 
L 126.863839 241.458348 
L 127.984821 241.41861 
L 139.941964 241.310294 
L 142.183929 241.288075 
L 158.251339 241.184459 
L 161.987946 241.159249 
L 194.870089 241.049865 
L 201.595982 241.02551 
L 231.488839 240.925312 
L 234.851786 240.891984 
L 247.182589 240.782599 
L 248.677232 240.74863 
L 255.029464 240.659542 
L 256.150446 240.611472 
L 260.260714 240.554003 
L 261.008036 240.494397 
L 265.491964 240.430732 
L 266.239286 240.365998 
L 270.723214 240.301265 
L 271.470536 240.222004 
L 275.954464 240.133129 
L 276.701786 240.037204 
L 281.185714 239.927606 
L 281.933036 239.818221 
L 286.416964 239.707982 
L 287.164286 239.608425 
L 291.648214 239.516559 
L 292.395536 239.435375 
L 299.495089 239.328982 
L 301.737054 239.306977 
L 328.266964 239.201011 
L 335.366518 239.169819 
L 357.038839 239.060007 
L 363.764732 239.040993 
L 388.8 238.977969 
L 388.8 238.977969 
" style="fill:none;stroke:#2ca02c;stroke-linecap:square;stroke-width:1.5;"/>
   </g>
   <g id="line2d_41">
    <path clip-path="url(#p38cf533e8f)" d="M 54 242.116364 
L 89.497768 242.009543 
L 96.223661 241.792056 
L 99.586607 241.463902 
L 101.08125 241.230819 
L 104.444196 240.730898 
L 107.059821 240.197435 
L 114.159375 238.054824 
L 116.401339 236.82083 
L 116.775 236.687517 
L 117.895982 236.006642 
L 119.764286 235.079224 
L 120.137946 234.893355 
L 120.511607 233.989011 
L 122.00625 233.328217 
L 123.500893 232.491169 
L 123.874554 232.436477 
L 125.742857 231.225129 
L 126.863839 230.929022 
L 127.984821 230.308393 
L 128.732143 230.023182 
L 129.105804 229.941571 
L 131.347768 228.750519 
L 132.095089 228.47599 
L 133.589732 227.619501 
L 134.337054 227.474865 
L 136.205357 226.375466 
L 137.326339 226.116105 
L 138.820982 225.5632 
L 139.568304 225.489067 
L 141.062946 224.809473 
L 141.810268 224.617195 
L 142.93125 224.400349 
L 144.425893 223.861972 
L 144.799554 223.811339 
L 146.294196 223.128327 
L 147.041518 222.868966 
L 147.415179 222.832434 
L 149.657143 222.04196 
L 150.404464 221.848187 
L 151.525446 221.407017 
L 152.272768 221.240377 
L 153.020089 221.098305 
L 154.514732 220.532582 
L 156.383036 220.074534 
L 157.130357 219.762618 
L 158.251339 219.562008 
L 159.372321 219.18429 
L 160.119643 219.020854 
L 160.866964 218.939884 
L 162.735268 218.346174 
L 163.108929 218.325237 
L 164.977232 217.607615 
L 166.098214 217.391623 
L 167.966518 216.772277 
L 168.340179 216.752408 
L 170.582143 216.058286 
L 170.955804 216.038845 
L 172.824107 215.335964 
L 173.571429 215.267172 
L 175.439732 214.535449 
L 176.560714 214.32544 
L 178.055357 213.788558 
L 179.176339 213.573635 
L 180.297321 213.257659 
L 181.418304 213.180534 
L 182.539286 212.631262 
L 184.407589 212.330668 
L 185.528571 211.765586 
L 185.902232 211.538485 
L 186.649554 211.513703 
L 187.023214 211.14218 
L 188.517857 210.369652 
L 189.265179 210.252576 
L 190.386161 209.558455 
L 192.254464 208.903857 
L 193.749107 208.122143 
L 195.24375 207.727333 
L 196.364732 207.306245 
L 197.485714 207.08064 
L 199.354018 206.378614 
L 199.727679 206.356395 
L 201.969643 205.547334 
L 202.343304 205.521911 
L 203.464286 205.126033 
L 204.211607 204.871159 
L 205.332589 204.64128 
L 206.827232 204.016165 
L 207.574554 203.923658 
L 209.442857 203.088533 
L 210.190179 203.016963 
L 212.058482 202.024598 
L 212.805804 201.926323 
L 215.047768 200.802996 
L 216.16875 200.705361 
L 216.542411 200.508384 
L 218.037054 200.310979 
L 220.279018 198.731954 
L 220.652679 198.681107 
L 222.147321 197.109133 
L 222.520982 196.758761 
L 223.268304 196.600238 
L 225.136607 194.835986 
L 225.883929 194.700965 
L 226.63125 194.127978 
L 227.378571 193.476371 
L 227.752232 193.304176 
L 228.499554 193.220001 
L 230.367857 191.935588 
L 231.115179 191.845645 
L 231.8625 191.337605 
L 232.983482 190.603747 
L 233.730804 190.51594 
L 235.225446 189.527207 
L 235.599107 189.324247 
L 236.346429 189.209308 
L 238.588393 187.803333 
L 238.962054 187.762314 
L 240.830357 186.272164 
L 241.577679 186.087791 
L 242.698661 184.978564 
L 243.445982 184.191508 
L 244.193304 184.00799 
L 245.687946 182.636625 
L 246.061607 182.308044 
L 246.808929 182.114271 
L 249.050893 179.819547 
L 249.798214 179.589028 
L 250.171875 179.394827 
L 251.292857 177.76987 
L 252.040179 177.482522 
L 254.282143 174.062761 
L 254.655804 173.931158 
L 256.524107 170.946798 
L 257.271429 170.67996 
L 259.139732 167.167479 
L 259.513393 166.895727 
L 259.887054 166.78976 
L 260.634375 165.462192 
L 261.755357 163.392859 
L 262.502679 163.013859 
L 262.876339 162.418013 
L 264.370982 158.900831 
L 265.118304 158.557296 
L 265.491964 157.862106 
L 266.986607 154.153502 
L 267.733929 153.712118 
L 268.48125 151.901933 
L 269.228571 149.537135 
L 269.602232 148.558656 
L 270.349554 148.112573 
L 272.217857 143.03944 
L 272.965179 142.602329 
L 274.833482 138.111583 
L 275.580804 137.744333 
L 277.449107 133.233077 
L 278.196429 132.847882 
L 278.94375 131.025733 
L 279.317411 130.789231 
L 280.064732 129.187988 
L 280.812054 128.880771 
L 282.680357 124.911738 
L 283.427679 124.542352 
L 284.175 123.065875 
L 285.295982 121.287949 
L 286.043304 121.059353 
L 287.164286 119.33377 
L 287.911607 118.458694 
L 288.658929 118.25253 
L 290.527232 116.561984 
L 291.274554 116.43914 
L 292.021875 115.755914 
L 292.395536 115.690326 
L 293.142857 115.071193 
L 293.890179 114.985309 
L 295.758482 113.63189 
L 297.253125 113.381288 
L 298.374107 112.774546 
L 299.121429 112.70319 
L 300.616071 111.979586 
L 301.363393 111.794145 
L 301.737054 111.787735 
L 302.858036 111.501456 
L 303.231696 111.151084 
L 303.979018 110.963506 
L 304.352679 110.951115 
L 305.473661 110.394792 
L 306.594643 110.169187 
L 307.341964 110.089285 
L 309.210268 109.690202 
L 309.957589 109.565649 
L 311.825893 109.182376 
L 312.573214 109.119139 
L 314.441518 108.861487 
L 315.188839 108.767484 
L 316.309821 108.58418 
L 317.804464 108.407926 
L 319.299107 107.823616 
L 320.046429 107.777683 
L 320.420089 107.562546 
L 320.79375 107.152568 
L 321.167411 107.152568 
L 321.541071 106.322997 
L 321.914732 105.885032 
L 322.288393 105.662418 
L 322.662054 105.589139 
L 323.409375 104.649329 
L 324.530357 102.870336 
L 324.904018 102.571879 
L 325.277679 102.48984 
L 327.145982 99.187582 
L 327.893304 98.872034 
L 328.640625 97.435294 
L 329.761607 95.061309 
L 330.508929 94.641717 
L 331.629911 92.073745 
L 332.377232 90.450069 
L 333.124554 89.99138 
L 333.871875 88.123085 
L 334.992857 85.311989 
L 335.740179 84.885347 
L 337.608482 80.475144 
L 338.355804 80.111312 
L 340.224107 76.274523 
L 340.597768 76.118778 
L 340.971429 76.118778 
L 341.71875 74.616237 
L 342.839732 72.924196 
L 343.587054 72.706922 
L 344.334375 71.544925 
L 345.455357 70.197061 
L 346.202679 70.05093 
L 348.070982 67.832689 
L 348.818304 67.645326 
L 350.312946 66.258365 
L 350.686607 66.041732 
L 351.433929 65.938116 
L 352.928571 64.819275 
L 353.302232 64.634689 
L 354.049554 64.548377 
L 355.170536 63.998464 
L 355.917857 63.680138 
L 356.665179 63.634846 
L 357.786161 63.228713 
L 359.280804 63.168466 
L 361.522768 62.10795 
L 361.896429 62.090645 
L 363.017411 61.591578 
L 363.764732 61.258938 
L 364.885714 61.207878 
L 366.380357 60.645573 
L 367.127679 60.616731 
L 367.501339 60.466541 
L 367.875 60.466541 
L 368.622321 60.120015 
L 369.369643 59.986275 
L 369.743304 59.967475 
L 371.985268 59.133204 
L 372.358929 59.116113 
L 374.600893 58.363667 
L 374.974554 58.348499 
L 377.216518 57.388607 
L 377.590179 57.365961 
L 378.711161 56.59856 
L 379.084821 56.59856 
L 379.458482 56.056552 
L 380.205804 55.978359 
L 381.326786 54.859732 
L 382.074107 54.075667 
L 383.195089 53.959019 
L 383.56875 52.670333 
L 384.689732 50.665093 
L 385.437054 50.381163 
L 386.184375 48.633575 
L 386.931696 46.565738 
L 387.305357 45.82312 
L 388.052679 45.321276 
L 388.426339 45.066188 
L 388.8 45.066188 
L 388.8 45.066188 
" style="fill:none;stroke:#d62728;stroke-linecap:square;stroke-width:1.5;"/>
   </g>
   <g id="line2d_42">
    <path clip-path="url(#p38cf533e8f)" d="M 54 242.116364 
L 92.113393 242.011679 
L 107.807143 241.321617 
L 111.917411 240.976372 
L 114.906696 240.56383 
L 119.390625 239.842149 
L 123.127232 239.078167 
L 131.721429 237.161374 
L 135.084375 236.745414 
L 139.941964 236.452512 
L 145.920536 236.045738 
L 147.788839 235.924817 
L 153.39375 235.543467 
L 155.262054 235.317007 
L 162.735268 234.569261 
L 178.429018 232.827869 
L 183.286607 232.117297 
L 184.033929 232.056623 
L 188.517857 231.26679 
L 193.375446 230.475461 
L 200.101339 229.682424 
L 210.190179 228.790043 
L 218.784375 228.124763 
L 219.905357 228.124763 
L 220.279018 227.911549 
L 221.4 227.811778 
L 234.478125 226.845477 
L 234.851786 226.845477 
L 235.225446 226.687169 
L 236.346429 226.687169 
L 236.720089 226.55877 
L 238.588393 226.467972 
L 239.335714 226.370552 
L 241.577679 226.276763 
L 241.951339 226.096877 
L 244.193304 226.018257 
L 244.566964 225.816152 
L 247.55625 225.562559 
L 248.677232 225.562559 
L 249.050893 225.330117 
L 250.171875 225.288671 
L 250.919196 225.288671 
L 251.292857 225.069902 
L 252.7875 224.974831 
L 253.161161 224.825923 
L 253.908482 224.825923 
L 254.282143 224.67381 
L 255.029464 224.569981 
L 256.897768 224.415731 
L 257.645089 224.415731 
L 258.01875 224.139706 
L 258.392411 224.139706 
L 258.766071 224.022845 
L 259.887054 224.022845 
L 260.260714 223.790402 
L 261.755357 223.61073 
L 262.129018 223.61073 
L 262.502679 223.423153 
L 263.25 223.423153 
L 263.623661 223.236643 
L 265.491964 223.236643 
L 265.865625 222.861062 
L 268.107589 222.861062 
L 268.48125 222.432497 
L 269.602232 222.31478 
L 270.723214 222.31478 
L 271.096875 222.021237 
L 273.338839 222.021237 
L 273.7125 221.592458 
L 276.328125 221.592458 
L 276.701786 221.153424 
L 277.822768 221.153424 
L 278.196429 220.816084 
L 280.438393 220.816084 
L 280.812054 220.319795 
L 283.054018 220.319795 
L 283.427679 219.823292 
L 286.416964 219.823292 
L 286.790625 219.185145 
L 287.537946 219.114856 
L 289.40625 219.114856 
L 289.779911 218.641213 
L 290.527232 218.575625 
L 292.395536 218.575625 
L 292.769196 218.126551 
L 293.890179 218.126551 
L 294.263839 217.884708 
L 298.000446 217.884708 
L 298.374107 217.278821 
L 299.495089 217.278821 
L 299.86875 217.045524 
L 300.989732 216.966049 
L 302.858036 216.897898 
L 305.847321 216.897898 
L 306.594643 216.521461 
L 311.452232 216.521461 
L 311.825893 216.2386 
L 317.430804 216.107424 
L 321.914732 216.002099 
L 324.530357 215.715178 
L 326.398661 215.715178 
L 326.772321 214.981319 
L 329.387946 214.981319 
L 329.761607 213.646059 
L 330.508929 213.251463 
L 335.366518 213.251463 
L 335.740179 210.543129 
L 340.597768 210.543129 
L 340.971429 208.710511 
L 346.95 208.710511 
L 347.323661 207.86855 
L 348.070982 207.70896 
L 355.544196 207.598293 
L 356.291518 207.487413 
L 373.10625 207.487413 
L 373.479911 207.345128 
L 376.842857 207.345128 
L 377.216518 207.135759 
L 382.821429 207.050516 
L 383.195089 205.872924 
L 388.8 205.872924 
L 388.8 205.872924 
" style="fill:none;stroke:#9467bd;stroke-linecap:square;stroke-width:1.5;"/>
   </g>
   <g id="line2d_43">
    <path clip-path="url(#p38cf533e8f)" d="M 54 242.116364 
L 88.376786 242.005484 
L 97.718304 241.518594 
L 105.565179 240.738375 
L 107.807143 240.223927 
L 108.928125 239.916069 
L 109.675446 239.711187 
L 110.422768 239.388374 
L 112.291071 238.69938 
L 113.785714 237.937962 
L 115.280357 237.219485 
L 116.401339 236.683886 
L 119.764286 235.521889 
L 123.500893 233.725377 
L 125.369196 233.140426 
L 128.358482 232.080978 
L 133.963393 230.470547 
L 134.710714 230.178713 
L 135.458036 229.795867 
L 136.205357 229.373712 
L 137.326339 228.919937 
L 138.820982 228.368101 
L 140.315625 228.102117 
L 141.062946 228.005551 
L 141.810268 227.633815 
L 142.183929 227.456278 
L 142.557589 227.456278 
L 143.304911 227.135816 
L 148.1625 225.687326 
L 150.404464 224.883606 
L 151.151786 224.667828 
L 152.272768 224.153166 
L 153.39375 223.858981 
L 154.888393 223.225107 
L 156.009375 222.658316 
L 157.504018 222.201977 
L 159.372321 221.417058 
L 159.745982 221.417058 
L 160.119643 221.134197 
L 161.987946 220.84279 
L 163.108929 220.629789 
L 164.229911 220.43858 
L 165.350893 220.089489 
L 167.966518 219.804705 
L 168.340179 219.638919 
L 168.713839 219.638919 
L 169.461161 219.324866 
L 170.955804 218.989022 
L 171.329464 218.989022 
L 172.076786 218.667064 
L 172.824107 218.624335 
L 173.197768 218.397234 
L 173.571429 218.397234 
L 175.439732 217.752037 
L 180.297321 216.765867 
L 182.165625 216.284533 
L 183.286607 215.807685 
L 184.407589 215.662836 
L 184.78125 215.432744 
L 185.528571 215.292168 
L 186.275893 214.781992 
L 187.023214 214.384618 
L 187.770536 213.92358 
L 188.144196 213.827655 
L 188.891518 213.464678 
L 190.0125 212.869258 
L 191.507143 212.008069 
L 194.122768 210.530951 
L 194.496429 210.530951 
L 194.870089 210.294237 
L 195.24375 209.83448 
L 196.364732 209.235856 
L 197.112054 208.844892 
L 198.980357 207.979003 
L 199.727679 207.723701 
L 205.332589 205.421713 
L 207.948214 204.834199 
L 209.442857 204.124054 
L 210.563839 203.764495 
L 211.684821 203.370967 
L 213.179464 202.79969 
L 215.047768 202.067113 
L 218.784375 200.877343 
L 220.279018 200.289615 
L 221.026339 200.09221 
L 221.4 199.769611 
L 223.641964 198.87253 
L 224.015625 198.87253 
L 224.389286 198.356586 
L 224.762946 198.171145 
L 225.136607 198.171145 
L 225.510268 197.912425 
L 226.257589 197.824191 
L 226.63125 197.602858 
L 227.004911 197.021753 
L 227.752232 196.575029 
L 228.125893 196.575029 
L 229.246875 195.763832 
L 231.115179 195.075692 
L 231.488839 194.662723 
L 231.8625 194.476 
L 232.236161 194.476 
L 232.609821 194.277314 
L 232.983482 193.841057 
L 234.478125 193.147363 
L 235.599107 192.521393 
L 236.720089 192.14218 
L 237.841071 191.600598 
L 239.709375 190.964587 
L 240.456696 190.620411 
L 242.698661 189.924794 
L 243.445982 189.331084 
L 245.687946 188.460494 
L 246.061607 188.037698 
L 247.929911 187.24936 
L 248.677232 186.649027 
L 249.050893 186.649027 
L 249.424554 186.498837 
L 249.798214 186.127528 
L 250.545536 185.848299 
L 251.292857 185.09158 
L 254.655804 183.369843 
L 255.029464 183.220721 
L 256.150446 182.455457 
L 256.897768 182.455457 
L 257.271429 181.95404 
L 258.392411 181.148397 
L 258.766071 180.879209 
L 259.513393 180.879209 
L 259.887054 180.064807 
L 261.008036 179.185886 
L 261.381696 178.6411 
L 262.129018 178.6411 
L 262.502679 177.901686 
L 262.876339 177.901686 
L 263.25 177.300285 
L 263.623661 177.130654 
L 263.997321 176.755713 
L 265.118304 176.755713 
L 265.865625 175.419171 
L 266.239286 175.419171 
L 266.612946 174.555418 
L 267.360268 174.555418 
L 267.733929 173.787163 
L 268.48125 172.976607 
L 268.854911 172.976607 
L 269.228571 172.291886 
L 269.975893 172.291886 
L 270.349554 171.680657 
L 270.723214 171.321526 
L 271.096875 171.321526 
L 271.470536 170.783576 
L 271.844196 170.783576 
L 272.217857 170.461405 
L 272.591518 170.461405 
L 272.965179 169.743783 
L 273.338839 169.743783 
L 274.086161 168.942413 
L 274.459821 168.942413 
L 274.833482 168.664893 
L 275.207143 168.664893 
L 275.580804 168.167749 
L 276.328125 167.578098 
L 276.701786 167.578098 
L 277.075446 167.154019 
L 277.822768 167.154019 
L 278.196429 166.563941 
L 278.570089 166.563941 
L 278.94375 166.280012 
L 279.317411 166.280012 
L 279.691071 165.908916 
L 280.064732 165.706598 
L 280.438393 165.706598 
L 280.812054 165.254959 
L 281.559375 164.879164 
L 281.933036 164.879164 
L 282.306696 164.560838 
L 283.427679 164.541824 
L 283.801339 164.081853 
L 284.175 163.924827 
L 284.548661 163.924827 
L 284.922321 163.651152 
L 285.669643 163.651152 
L 286.043304 163.427042 
L 287.164286 163.276211 
L 288.285268 163.276211 
L 289.032589 162.862174 
L 290.153571 162.671392 
L 290.900893 162.603454 
L 291.274554 162.603454 
L 291.648214 162.384044 
L 292.395536 162.302219 
L 295.758482 161.919373 
L 296.879464 161.813407 
L 304.352679 161.460899 
L 308.089286 161.38997 
L 308.836607 161.306222 
L 316.309821 161.213502 
L 317.057143 161.130609 
L 318.551786 161.060321 
L 321.541071 161.060321 
L 321.914732 160.664656 
L 322.662054 160.664656 
L 323.035714 160.411277 
L 324.904018 160.411277 
L 325.277679 159.787017 
L 325.651339 159.658405 
L 326.025 159.658405 
L 326.398661 159.327046 
L 327.893304 159.327046 
L 328.266964 158.551527 
L 328.640625 158.551527 
L 329.014286 158.395783 
L 336.113839 158.395783 
L 336.4875 155.641943 
L 337.982143 155.641943 
L 338.355804 154.853178 
L 338.729464 154.853178 
L 339.476786 154.264382 
L 340.971429 154.264382 
L 341.345089 153.939433 
L 341.71875 153.939433 
L 342.092411 153.733055 
L 343.587054 153.733055 
L 343.960714 153.516209 
L 345.081696 153.516209 
L 345.455357 153.085721 
L 347.323661 152.984882 
L 347.697321 152.75009 
L 349.939286 152.644979 
L 350.312946 152.254228 
L 354.423214 152.147407 
L 362.270089 151.843182 
L 362.64375 151.707733 
L 364.138393 151.707733 
L 364.885714 151.580403 
L 369.743304 151.436836 
L 370.490625 151.367616 
L 374.974554 151.29455 
L 376.095536 151.239431 
L 380.953125 151.178757 
L 382.074107 151.084754 
L 385.063393 151.000366 
L 386.184375 150.815566 
L 388.8 150.738014 
L 388.8 150.738014 
" style="fill:none;stroke:#8c564b;stroke-linecap:square;stroke-width:1.5;"/>
   </g>
   <g id="patch_3">
    <path d="M 54 252 
L 54 34.56 
" style="fill:none;stroke:#000000;stroke-linecap:square;stroke-linejoin:miter;stroke-width:0.8;"/>
   </g>
   <g id="patch_4">
    <path d="M 388.8 252 
L 388.8 34.56 
" style="fill:none;stroke:#000000;stroke-linecap:square;stroke-linejoin:miter;stroke-width:0.8;"/>
   </g>
   <g id="patch_5">
    <path d="M 54 252 
L 388.8 252 
" style="fill:none;stroke:#000000;stroke-linecap:square;stroke-linejoin:miter;stroke-width:0.8;"/>
   </g>
   <g id="patch_6">
    <path d="M 54 34.56 
L 388.8 34.56 
" style="fill:none;stroke:#000000;stroke-linecap:square;stroke-linejoin:miter;stroke-width:0.8;"/>
   </g>
   <g id="text_17">
    <!-- Centroamrica -->
    <defs>
     <path d="M 64.40625 67.28125 
L 64.40625 56.890625 
Q 59.421875 61.53125 53.78125 63.8125 
Q 48.140625 66.109375 41.796875 66.109375 
Q 29.296875 66.109375 22.65625 58.46875 
Q 16.015625 50.828125 16.015625 36.375 
Q 16.015625 21.96875 22.65625 14.328125 
Q 29.296875 6.6875 41.796875 6.6875 
Q 48.140625 6.6875 53.78125 8.984375 
Q 59.421875 11.28125 64.40625 15.921875 
L 64.40625 5.609375 
Q 59.234375 2.09375 53.4375 0.328125 
Q 47.65625 -1.421875 41.21875 -1.421875 
Q 24.65625 -1.421875 15.125 8.703125 
Q 5.609375 18.84375 5.609375 36.375 
Q 5.609375 53.953125 15.125 64.078125 
Q 24.65625 74.21875 41.21875 74.21875 
Q 47.75 74.21875 53.53125 72.484375 
Q 59.328125 70.75 64.40625 67.28125 
z
" id="DejaVuSans-67"/>
     <path d="M 30.609375 48.390625 
Q 23.390625 48.390625 19.1875 42.75 
Q 14.984375 37.109375 14.984375 27.296875 
Q 14.984375 17.484375 19.15625 11.84375 
Q 23.34375 6.203125 30.609375 6.203125 
Q 37.796875 6.203125 41.984375 11.859375 
Q 46.1875 17.53125 46.1875 27.296875 
Q 46.1875 37.015625 41.984375 42.703125 
Q 37.796875 48.390625 30.609375 48.390625 
z
M 30.609375 56 
Q 42.328125 56 49.015625 48.375 
Q 55.71875 40.765625 55.71875 27.296875 
Q 55.71875 13.875 49.015625 6.21875 
Q 42.328125 -1.421875 30.609375 -1.421875 
Q 18.84375 -1.421875 12.171875 6.21875 
Q 5.515625 13.875 5.515625 27.296875 
Q 5.515625 40.765625 12.171875 48.375 
Q 18.84375 56 30.609375 56 
z
" id="DejaVuSans-111"/>
     <path d="M 52 44.1875 
Q 55.375 50.25 60.0625 53.125 
Q 64.75 56 71.09375 56 
Q 79.640625 56 84.28125 50.015625 
Q 88.921875 44.046875 88.921875 33.015625 
L 88.921875 0 
L 79.890625 0 
L 79.890625 32.71875 
Q 79.890625 40.578125 77.09375 44.375 
Q 74.3125 48.1875 68.609375 48.1875 
Q 61.625 48.1875 57.5625 43.546875 
Q 53.515625 38.921875 53.515625 30.90625 
L 53.515625 0 
L 44.484375 0 
L 44.484375 32.71875 
Q 44.484375 40.625 41.703125 44.40625 
Q 38.921875 48.1875 33.109375 48.1875 
Q 26.21875 48.1875 22.15625 43.53125 
Q 18.109375 38.875 18.109375 30.90625 
L 18.109375 0 
L 9.078125 0 
L 9.078125 54.6875 
L 18.109375 54.6875 
L 18.109375 46.1875 
Q 21.1875 51.21875 25.484375 53.609375 
Q 29.78125 56 35.6875 56 
Q 41.65625 56 45.828125 52.96875 
Q 50 49.953125 52 44.1875 
z
" id="DejaVuSans-109"/>
     <path d="M 56.203125 29.59375 
L 56.203125 25.203125 
L 14.890625 25.203125 
Q 15.484375 15.921875 20.484375 11.0625 
Q 25.484375 6.203125 34.421875 6.203125 
Q 39.59375 6.203125 44.453125 7.46875 
Q 49.3125 8.734375 54.109375 11.28125 
L 54.109375 2.78125 
Q 49.265625 0.734375 44.1875 -0.34375 
Q 39.109375 -1.421875 33.890625 -1.421875 
Q 20.796875 -1.421875 13.15625 6.1875 
Q 5.515625 13.8125 5.515625 26.8125 
Q 5.515625 40.234375 12.765625 48.109375 
Q 20.015625 56 32.328125 56 
Q 43.359375 56 49.78125 48.890625 
Q 56.203125 41.796875 56.203125 29.59375 
z
M 47.21875 32.234375 
Q 47.125 39.59375 43.09375 43.984375 
Q 39.0625 48.390625 32.421875 48.390625 
Q 24.90625 48.390625 20.390625 44.140625 
Q 15.875 39.890625 15.1875 32.171875 
z
M 38.578125 79.984375 
L 48.296875 79.984375 
L 32.375 61.625 
L 24.90625 61.625 
z
" id="DejaVuSans-233"/>
     <path d="M 9.421875 54.6875 
L 18.40625 54.6875 
L 18.40625 0 
L 9.421875 0 
z
M 9.421875 75.984375 
L 18.40625 75.984375 
L 18.40625 64.59375 
L 9.421875 64.59375 
z
" id="DejaVuSans-105"/>
    </defs>
    <g transform="translate(176.905313 28.56)scale(0.12 -0.12)">
     <use xlink:href="#DejaVuSans-67"/>
     <use x="69.824219" xlink:href="#DejaVuSans-101"/>
     <use x="131.347656" xlink:href="#DejaVuSans-110"/>
     <use x="194.726562" xlink:href="#DejaVuSans-116"/>
     <use x="233.935547" xlink:href="#DejaVuSans-114"/>
     <use x="275.017578" xlink:href="#DejaVuSans-111"/>
     <use x="336.199219" xlink:href="#DejaVuSans-97"/>
     <use x="397.478516" xlink:href="#DejaVuSans-109"/>
     <use x="494.890625" xlink:href="#DejaVuSans-233"/>
     <use x="556.414062" xlink:href="#DejaVuSans-114"/>
     <use x="597.527344" xlink:href="#DejaVuSans-105"/>
     <use x="625.310547" xlink:href="#DejaVuSans-99"/>
     <use x="680.291016" xlink:href="#DejaVuSans-97"/>
    </g>
   </g>
   <g id="legend_1">
    <g id="patch_7">
     <path d="M 61 130.62875 
L 149.154687 130.62875 
Q 151.154687 130.62875 151.154687 128.62875 
L 151.154687 41.56 
Q 151.154687 39.56 149.154687 39.56 
L 61 39.56 
Q 59 39.56 59 41.56 
L 59 128.62875 
Q 59 130.62875 61 130.62875 
z
" style="fill:#ffffff;opacity:0.8;stroke:#cccccc;stroke-linejoin:miter;"/>
    </g>
    <g id="line2d_44">
     <path d="M 63 47.658437 
L 83 47.658437 
" style="fill:none;stroke:#1f77b4;stroke-linecap:square;stroke-width:1.5;"/>
    </g>
    <g id="line2d_45"/>
    <g id="text_18">
     <!-- Panam -->
     <defs>
      <path d="M 19.671875 64.796875 
L 19.671875 37.40625 
L 32.078125 37.40625 
Q 38.96875 37.40625 42.71875 40.96875 
Q 46.484375 44.53125 46.484375 51.125 
Q 46.484375 57.671875 42.71875 61.234375 
Q 38.96875 64.796875 32.078125 64.796875 
z
M 9.8125 72.90625 
L 32.078125 72.90625 
Q 44.34375 72.90625 50.609375 67.359375 
Q 56.890625 61.8125 56.890625 51.125 
Q 56.890625 40.328125 50.609375 34.8125 
Q 44.34375 29.296875 32.078125 29.296875 
L 19.671875 29.296875 
L 19.671875 0 
L 9.8125 0 
z
" id="DejaVuSans-80"/>
      <path d="M 34.28125 27.484375 
Q 23.390625 27.484375 19.1875 25 
Q 14.984375 22.515625 14.984375 16.5 
Q 14.984375 11.71875 18.140625 8.90625 
Q 21.296875 6.109375 26.703125 6.109375 
Q 34.1875 6.109375 38.703125 11.40625 
Q 43.21875 16.703125 43.21875 25.484375 
L 43.21875 27.484375 
z
M 52.203125 31.203125 
L 52.203125 0 
L 43.21875 0 
L 43.21875 8.296875 
Q 40.140625 3.328125 35.546875 0.953125 
Q 30.953125 -1.421875 24.3125 -1.421875 
Q 15.921875 -1.421875 10.953125 3.296875 
Q 6 8.015625 6 15.921875 
Q 6 25.140625 12.171875 29.828125 
Q 18.359375 34.515625 30.609375 34.515625 
L 43.21875 34.515625 
L 43.21875 35.40625 
Q 43.21875 41.609375 39.140625 45 
Q 35.0625 48.390625 27.6875 48.390625 
Q 23 48.390625 18.546875 47.265625 
Q 14.109375 46.140625 10.015625 43.890625 
L 10.015625 52.203125 
Q 14.9375 54.109375 19.578125 55.046875 
Q 24.21875 56 28.609375 56 
Q 40.484375 56 46.34375 49.84375 
Q 52.203125 43.703125 52.203125 31.203125 
z
M 35.796875 79.984375 
L 45.515625 79.984375 
L 29.59375 61.625 
L 22.125 61.625 
z
" id="DejaVuSans-225"/>
     </defs>
     <g transform="translate(91 51.158437)scale(0.1 -0.1)">
      <use xlink:href="#DejaVuSans-80"/>
      <use x="60.240234" xlink:href="#DejaVuSans-97"/>
      <use x="121.519531" xlink:href="#DejaVuSans-110"/>
      <use x="184.898438" xlink:href="#DejaVuSans-97"/>
      <use x="246.177734" xlink:href="#DejaVuSans-109"/>
      <use x="343.589844" xlink:href="#DejaVuSans-225"/>
     </g>
    </g>
    <g id="line2d_46">
     <path d="M 63 62.336562 
L 83 62.336562 
" style="fill:none;stroke:#ff7f0e;stroke-linecap:square;stroke-width:1.5;"/>
    </g>
    <g id="line2d_47"/>
    <g id="text_19">
     <!-- Costa Rica -->
     <defs>
      <path d="M 44.28125 53.078125 
L 44.28125 44.578125 
Q 40.484375 46.53125 36.375 47.5 
Q 32.28125 48.484375 27.875 48.484375 
Q 21.1875 48.484375 17.84375 46.4375 
Q 14.5 44.390625 14.5 40.28125 
Q 14.5 37.15625 16.890625 35.375 
Q 19.28125 33.59375 26.515625 31.984375 
L 29.59375 31.296875 
Q 39.15625 29.25 43.1875 25.515625 
Q 47.21875 21.78125 47.21875 15.09375 
Q 47.21875 7.46875 41.1875 3.015625 
Q 35.15625 -1.421875 24.609375 -1.421875 
Q 20.21875 -1.421875 15.453125 -0.5625 
Q 10.6875 0.296875 5.421875 2 
L 5.421875 11.28125 
Q 10.40625 8.6875 15.234375 7.390625 
Q 20.0625 6.109375 24.8125 6.109375 
Q 31.15625 6.109375 34.5625 8.28125 
Q 37.984375 10.453125 37.984375 14.40625 
Q 37.984375 18.0625 35.515625 20.015625 
Q 33.0625 21.96875 24.703125 23.78125 
L 21.578125 24.515625 
Q 13.234375 26.265625 9.515625 29.90625 
Q 5.8125 33.546875 5.8125 39.890625 
Q 5.8125 47.609375 11.28125 51.796875 
Q 16.75 56 26.8125 56 
Q 31.78125 56 36.171875 55.265625 
Q 40.578125 54.546875 44.28125 53.078125 
z
" id="DejaVuSans-115"/>
      <path id="DejaVuSans-32"/>
      <path d="M 44.390625 34.1875 
Q 47.5625 33.109375 50.5625 29.59375 
Q 53.5625 26.078125 56.59375 19.921875 
L 66.609375 0 
L 56 0 
L 46.6875 18.703125 
Q 43.0625 26.03125 39.671875 28.421875 
Q 36.28125 30.8125 30.421875 30.8125 
L 19.671875 30.8125 
L 19.671875 0 
L 9.8125 0 
L 9.8125 72.90625 
L 32.078125 72.90625 
Q 44.578125 72.90625 50.734375 67.671875 
Q 56.890625 62.453125 56.890625 51.90625 
Q 56.890625 45.015625 53.6875 40.46875 
Q 50.484375 35.9375 44.390625 34.1875 
z
M 19.671875 64.796875 
L 19.671875 38.921875 
L 32.078125 38.921875 
Q 39.203125 38.921875 42.84375 42.21875 
Q 46.484375 45.515625 46.484375 51.90625 
Q 46.484375 58.296875 42.84375 61.546875 
Q 39.203125 64.796875 32.078125 64.796875 
z
" id="DejaVuSans-82"/>
     </defs>
     <g transform="translate(91 65.836562)scale(0.1 -0.1)">
      <use xlink:href="#DejaVuSans-67"/>
      <use x="69.824219" xlink:href="#DejaVuSans-111"/>
      <use x="131.005859" xlink:href="#DejaVuSans-115"/>
      <use x="183.105469" xlink:href="#DejaVuSans-116"/>
      <use x="222.314453" xlink:href="#DejaVuSans-97"/>
      <use x="283.59375" xlink:href="#DejaVuSans-32"/>
      <use x="315.380859" xlink:href="#DejaVuSans-82"/>
      <use x="384.863281" xlink:href="#DejaVuSans-105"/>
      <use x="412.646484" xlink:href="#DejaVuSans-99"/>
      <use x="467.626953" xlink:href="#DejaVuSans-97"/>
     </g>
    </g>
    <g id="line2d_48">
     <path d="M 63 77.014687 
L 83 77.014687 
" style="fill:none;stroke:#2ca02c;stroke-linecap:square;stroke-width:1.5;"/>
    </g>
    <g id="line2d_49"/>
    <g id="text_20">
     <!-- Nicaragua -->
     <defs>
      <path d="M 9.8125 72.90625 
L 23.09375 72.90625 
L 55.421875 11.921875 
L 55.421875 72.90625 
L 64.984375 72.90625 
L 64.984375 0 
L 51.703125 0 
L 19.390625 60.984375 
L 19.390625 0 
L 9.8125 0 
z
" id="DejaVuSans-78"/>
      <path d="M 45.40625 27.984375 
Q 45.40625 37.75 41.375 43.109375 
Q 37.359375 48.484375 30.078125 48.484375 
Q 22.859375 48.484375 18.828125 43.109375 
Q 14.796875 37.75 14.796875 27.984375 
Q 14.796875 18.265625 18.828125 12.890625 
Q 22.859375 7.515625 30.078125 7.515625 
Q 37.359375 7.515625 41.375 12.890625 
Q 45.40625 18.265625 45.40625 27.984375 
z
M 54.390625 6.78125 
Q 54.390625 -7.171875 48.1875 -13.984375 
Q 42 -20.796875 29.203125 -20.796875 
Q 24.46875 -20.796875 20.265625 -20.09375 
Q 16.0625 -19.390625 12.109375 -17.921875 
L 12.109375 -9.1875 
Q 16.0625 -11.328125 19.921875 -12.34375 
Q 23.78125 -13.375 27.78125 -13.375 
Q 36.625 -13.375 41.015625 -8.765625 
Q 45.40625 -4.15625 45.40625 5.171875 
L 45.40625 9.625 
Q 42.625 4.78125 38.28125 2.390625 
Q 33.9375 0 27.875 0 
Q 17.828125 0 11.671875 7.65625 
Q 5.515625 15.328125 5.515625 27.984375 
Q 5.515625 40.671875 11.671875 48.328125 
Q 17.828125 56 27.875 56 
Q 33.9375 56 38.28125 53.609375 
Q 42.625 51.21875 45.40625 46.390625 
L 45.40625 54.6875 
L 54.390625 54.6875 
z
" id="DejaVuSans-103"/>
     </defs>
     <g transform="translate(91 80.514687)scale(0.1 -0.1)">
      <use xlink:href="#DejaVuSans-78"/>
      <use x="74.804688" xlink:href="#DejaVuSans-105"/>
      <use x="102.587891" xlink:href="#DejaVuSans-99"/>
      <use x="157.568359" xlink:href="#DejaVuSans-97"/>
      <use x="218.847656" xlink:href="#DejaVuSans-114"/>
      <use x="259.960938" xlink:href="#DejaVuSans-97"/>
      <use x="321.240234" xlink:href="#DejaVuSans-103"/>
      <use x="384.716797" xlink:href="#DejaVuSans-117"/>
      <use x="448.095703" xlink:href="#DejaVuSans-97"/>
     </g>
    </g>
    <g id="line2d_50">
     <path d="M 63 91.692813 
L 83 91.692813 
" style="fill:none;stroke:#d62728;stroke-linecap:square;stroke-width:1.5;"/>
    </g>
    <g id="line2d_51"/>
    <g id="text_21">
     <!-- Guatemala -->
     <defs>
      <path d="M 59.515625 10.40625 
L 59.515625 29.984375 
L 43.40625 29.984375 
L 43.40625 38.09375 
L 69.28125 38.09375 
L 69.28125 6.78125 
Q 63.578125 2.734375 56.6875 0.65625 
Q 49.8125 -1.421875 42 -1.421875 
Q 24.90625 -1.421875 15.25 8.5625 
Q 5.609375 18.5625 5.609375 36.375 
Q 5.609375 54.25 15.25 64.234375 
Q 24.90625 74.21875 42 74.21875 
Q 49.125 74.21875 55.546875 72.453125 
Q 61.96875 70.703125 67.390625 67.28125 
L 67.390625 56.78125 
Q 61.921875 61.421875 55.765625 63.765625 
Q 49.609375 66.109375 42.828125 66.109375 
Q 29.4375 66.109375 22.71875 58.640625 
Q 16.015625 51.171875 16.015625 36.375 
Q 16.015625 21.625 22.71875 14.15625 
Q 29.4375 6.6875 42.828125 6.6875 
Q 48.046875 6.6875 52.140625 7.59375 
Q 56.25 8.5 59.515625 10.40625 
z
" id="DejaVuSans-71"/>
     </defs>
     <g transform="translate(91 95.192813)scale(0.1 -0.1)">
      <use xlink:href="#DejaVuSans-71"/>
      <use x="77.490234" xlink:href="#DejaVuSans-117"/>
      <use x="140.869141" xlink:href="#DejaVuSans-97"/>
      <use x="202.148438" xlink:href="#DejaVuSans-116"/>
      <use x="241.357422" xlink:href="#DejaVuSans-101"/>
      <use x="302.880859" xlink:href="#DejaVuSans-109"/>
      <use x="400.292969" xlink:href="#DejaVuSans-97"/>
      <use x="461.572266" xlink:href="#DejaVuSans-108"/>
      <use x="489.355469" xlink:href="#DejaVuSans-97"/>
     </g>
    </g>
    <g id="line2d_52">
     <path d="M 63 106.370937 
L 83 106.370937 
" style="fill:none;stroke:#9467bd;stroke-linecap:square;stroke-width:1.5;"/>
    </g>
    <g id="line2d_53"/>
    <g id="text_22">
     <!-- El Salvador -->
     <defs>
      <path d="M 9.8125 72.90625 
L 55.90625 72.90625 
L 55.90625 64.59375 
L 19.671875 64.59375 
L 19.671875 43.015625 
L 54.390625 43.015625 
L 54.390625 34.71875 
L 19.671875 34.71875 
L 19.671875 8.296875 
L 56.78125 8.296875 
L 56.78125 0 
L 9.8125 0 
z
" id="DejaVuSans-69"/>
      <path d="M 53.515625 70.515625 
L 53.515625 60.890625 
Q 47.90625 63.578125 42.921875 64.890625 
Q 37.9375 66.21875 33.296875 66.21875 
Q 25.25 66.21875 20.875 63.09375 
Q 16.5 59.96875 16.5 54.203125 
Q 16.5 49.359375 19.40625 46.890625 
Q 22.3125 44.4375 30.421875 42.921875 
L 36.375 41.703125 
Q 47.40625 39.59375 52.65625 34.296875 
Q 57.90625 29 57.90625 20.125 
Q 57.90625 9.515625 50.796875 4.046875 
Q 43.703125 -1.421875 29.984375 -1.421875 
Q 24.8125 -1.421875 18.96875 -0.25 
Q 13.140625 0.921875 6.890625 3.21875 
L 6.890625 13.375 
Q 12.890625 10.015625 18.65625 8.296875 
Q 24.421875 6.59375 29.984375 6.59375 
Q 38.421875 6.59375 43.015625 9.90625 
Q 47.609375 13.234375 47.609375 19.390625 
Q 47.609375 24.75 44.3125 27.78125 
Q 41.015625 30.8125 33.5 32.328125 
L 27.484375 33.5 
Q 16.453125 35.6875 11.515625 40.375 
Q 6.59375 45.0625 6.59375 53.421875 
Q 6.59375 63.09375 13.40625 68.65625 
Q 20.21875 74.21875 32.171875 74.21875 
Q 37.3125 74.21875 42.625 73.28125 
Q 47.953125 72.359375 53.515625 70.515625 
z
" id="DejaVuSans-83"/>
      <path d="M 2.984375 54.6875 
L 12.5 54.6875 
L 29.59375 8.796875 
L 46.6875 54.6875 
L 56.203125 54.6875 
L 35.6875 0 
L 23.484375 0 
z
" id="DejaVuSans-118"/>
      <path d="M 45.40625 46.390625 
L 45.40625 75.984375 
L 54.390625 75.984375 
L 54.390625 0 
L 45.40625 0 
L 45.40625 8.203125 
Q 42.578125 3.328125 38.25 0.953125 
Q 33.9375 -1.421875 27.875 -1.421875 
Q 17.96875 -1.421875 11.734375 6.484375 
Q 5.515625 14.40625 5.515625 27.296875 
Q 5.515625 40.1875 11.734375 48.09375 
Q 17.96875 56 27.875 56 
Q 33.9375 56 38.25 53.625 
Q 42.578125 51.265625 45.40625 46.390625 
z
M 14.796875 27.296875 
Q 14.796875 17.390625 18.875 11.75 
Q 22.953125 6.109375 30.078125 6.109375 
Q 37.203125 6.109375 41.296875 11.75 
Q 45.40625 17.390625 45.40625 27.296875 
Q 45.40625 37.203125 41.296875 42.84375 
Q 37.203125 48.484375 30.078125 48.484375 
Q 22.953125 48.484375 18.875 42.84375 
Q 14.796875 37.203125 14.796875 27.296875 
z
" id="DejaVuSans-100"/>
     </defs>
     <g transform="translate(91 109.870937)scale(0.1 -0.1)">
      <use xlink:href="#DejaVuSans-69"/>
      <use x="63.183594" xlink:href="#DejaVuSans-108"/>
      <use x="90.966797" xlink:href="#DejaVuSans-32"/>
      <use x="122.753906" xlink:href="#DejaVuSans-83"/>
      <use x="186.230469" xlink:href="#DejaVuSans-97"/>
      <use x="247.509766" xlink:href="#DejaVuSans-108"/>
      <use x="275.292969" xlink:href="#DejaVuSans-118"/>
      <use x="334.472656" xlink:href="#DejaVuSans-97"/>
      <use x="395.751953" xlink:href="#DejaVuSans-100"/>
      <use x="459.228516" xlink:href="#DejaVuSans-111"/>
      <use x="520.410156" xlink:href="#DejaVuSans-114"/>
     </g>
    </g>
    <g id="line2d_54">
     <path d="M 63 121.049062 
L 83 121.049062 
" style="fill:none;stroke:#8c564b;stroke-linecap:square;stroke-width:1.5;"/>
    </g>
    <g id="line2d_55"/>
    <g id="text_23">
     <!-- Honduras -->
     <defs>
      <path d="M 9.8125 72.90625 
L 19.671875 72.90625 
L 19.671875 43.015625 
L 55.515625 43.015625 
L 55.515625 72.90625 
L 65.375 72.90625 
L 65.375 0 
L 55.515625 0 
L 55.515625 34.71875 
L 19.671875 34.71875 
L 19.671875 0 
L 9.8125 0 
z
" id="DejaVuSans-72"/>
     </defs>
     <g transform="translate(91 124.549062)scale(0.1 -0.1)">
      <use xlink:href="#DejaVuSans-72"/>
      <use x="75.195312" xlink:href="#DejaVuSans-111"/>
      <use x="136.376953" xlink:href="#DejaVuSans-110"/>
      <use x="199.755859" xlink:href="#DejaVuSans-100"/>
      <use x="263.232422" xlink:href="#DejaVuSans-117"/>
      <use x="326.611328" xlink:href="#DejaVuSans-114"/>
      <use x="367.724609" xlink:href="#DejaVuSans-97"/>
      <use x="429.003906" xlink:href="#DejaVuSans-115"/>
     </g>
    </g>
   </g>
  </g>
 </g>
 <defs>
  <clipPath id="p38cf533e8f">
   <rect height="217.44" width="334.8" x="54" y="34.56"/>
  </clipPath>
 </defs>
</svg>
